<?xml version="1.0" encoding="iso-8859-1"?>
<!-- Generator: Adobe Illustrator 19.0.0, SVG Export Plug-In . SVG Version: 6.00 Build 0)  -->
<svg version="1.1" id="Layer_1" xmlns="http://www.w3.org/2000/svg" xmlns:xlink="http://www.w3.org/1999/xlink" x="0px" y="0px"
	 viewBox="0 0 511.883 511.883" style="enable-background:new 0 0 511.883 511.883;" xml:space="preserve">
<polygon style="fill:#AC92EB;" points="153.043,38.07 80.669,84.512 214.903,216.123 254.379,202.954 254.379,8.217 "/>
<polygon style="fill:#A0D468;" points="355.714,470.487 428.073,424.029 293.854,292.45 254.379,305.587 254.379,500.386 "/>
<polygon style="fill:#48CFAD;" points="171.913,481.359 255.925,499.699 254.05,311.726 216.84,293.105 79.138,430.808 "/>
<polygon style="fill:#4FC2E9;" points="31.586,356.95 78.028,429.308 209.608,295.074 196.47,255.598 1.718,255.598 "/>
<polygon style="fill:#5D9CEC;" points="25.931,179.725 7.591,263.737 195.548,261.863 214.169,224.668 76.466,86.95 "/>
<polygon style="fill:#ED5564;" points="338.39,28.197 254.379,9.874 256.253,197.831 293.448,216.466 431.166,78.749 "/>
<polygon style="fill:#FC6E51;" points="478.718,152.606 432.275,80.263 300.696,214.483 313.834,253.958 495.871,255.598 "/>
<polygon style="fill:#FFCE54;" points="484.357,329.832 502.712,245.819 314.755,247.71 296.134,284.904 433.837,422.623 "/>
<path style="fill:#434A54;" d="M255.941,0.001C114.598,0.001,0,114.599,0,255.942c0,141.374,114.599,255.941,255.941,255.941
	c141.358,0,255.942-114.567,255.942-255.941C511.882,114.599,397.298,0.001,255.941,0.001z M472.141,164.635
	c10.841,25.65,16.934,52.738,18.167,80.653h-42.709c-2.452-44.974-20.4-85.824-48.598-117.317l30.212-30.212
	C447.287,117.521,461.707,139.968,472.141,164.635z M255.941,298.604c-23.51,0-42.646-19.137-42.646-42.662
	c0-23.51,19.136-42.646,42.646-42.646c23.526,0,42.663,19.136,42.663,42.646C298.603,279.467,279.466,298.604,255.941,298.604z
	 M293.026,203.797c-7.717-5.499-16.684-9.31-26.416-10.95v-43.021c20.933,2.062,40.569,10.201,56.831,23.542L293.026,203.797z
	 M245.287,192.847c-9.716,1.64-18.699,5.452-26.416,10.95l-30.415-30.43c16.262-13.341,35.898-21.479,56.831-23.542L245.287,192.847
	L245.287,192.847z M203.796,218.873c-5.499,7.717-9.311,16.699-10.951,26.416h-43.021c2.078-20.933,10.201-40.569,23.542-56.831
	L203.796,218.873z M192.846,266.612c1.64,9.716,5.452,18.698,10.951,26.415l-30.431,30.431
	c-13.34-16.277-21.464-35.913-23.542-56.846H192.846z M218.871,308.102c7.717,5.498,16.699,9.311,26.416,10.95v43.021
	c-20.933-2.062-40.569-10.185-56.831-23.525L218.871,308.102z M266.61,319.052c9.732-1.64,18.699-5.452,26.416-10.95l30.415,30.446
	c-16.262,13.341-35.898,21.464-56.831,23.525L266.61,319.052L266.61,319.052z M308.101,293.027
	c5.498-7.717,9.311-16.699,10.95-26.415h43.021c-2.078,20.933-10.201,40.568-23.542,56.846L308.101,293.027z M319.051,245.288
	c-1.64-9.716-5.452-18.699-10.95-26.416l30.43-30.415c13.341,16.262,21.464,35.898,23.542,56.831L319.051,245.288L319.051,245.288z
	 M338.578,158.23c-19.745-16.715-44.646-27.556-71.968-29.806V85.653c19.276,1.188,37.991,5.546,55.753,13.06
	c17.043,7.217,32.617,17.043,46.458,29.274L338.578,158.23z M245.287,128.424c-27.322,2.25-52.207,13.091-71.968,29.806
	l-30.243-30.243c13.841-12.231,29.416-22.058,46.458-29.274c17.761-7.514,36.476-11.872,55.752-13.06v42.771H245.287z
	 M158.244,173.32c-16.73,19.761-27.572,44.646-29.821,71.968H85.651c1.188-19.277,5.562-37.991,13.075-55.752
	c7.202-17.043,17.027-32.618,29.275-46.458L158.244,173.32z M128.423,266.612c2.25,27.321,13.091,52.222,29.821,71.968
	l-30.243,30.243c-12.248-13.841-22.073-29.4-29.275-46.459c-7.514-17.762-11.888-36.476-13.075-55.752L128.423,266.612
	L128.423,266.612z M173.319,353.67c19.761,16.715,44.646,27.557,71.968,29.806v42.771c-19.277-1.188-37.991-5.562-55.752-13.06
	c-17.043-7.217-32.618-17.059-46.458-29.274L173.319,353.67z M266.61,383.475c27.322-2.249,52.223-13.091,71.968-29.806
	l30.243,30.243c-13.841,12.216-29.415,22.058-46.458,29.274c-17.762,7.498-36.477,11.872-55.753,13.06L266.61,383.475
	L266.61,383.475z M353.652,338.58c16.731-19.746,27.572-44.646,29.822-71.968h42.771c-1.188,19.276-5.562,37.99-13.076,55.752
	c-7.201,17.059-17.043,32.618-29.273,46.459L353.652,338.58z M383.474,245.288c-2.25-27.322-13.091-52.207-29.822-71.968
	l30.244-30.243c12.23,13.84,22.072,29.416,29.273,46.458c7.515,17.761,11.889,36.476,13.076,55.752h-42.771V245.288z
	 M414.123,82.685l-30.195,30.212C352.435,84.7,311.584,66.751,266.611,64.283V21.574c27.915,1.25,55.003,7.342,80.653,18.184
	C371.929,50.192,394.378,64.611,414.123,82.685z M245.287,21.574v42.709c-44.974,2.468-85.824,20.417-117.316,48.614L97.758,82.685
	c19.761-18.074,42.209-32.493,66.875-42.928C190.284,28.916,217.372,22.824,245.287,21.574z M82.684,97.759l30.212,30.212
	c-28.197,31.493-46.146,72.343-48.598,117.317h-42.71c1.234-27.916,7.326-55.003,18.183-80.653
	C50.191,139.968,64.609,117.521,82.684,97.759z M39.772,347.264c-10.857-25.65-16.949-52.737-18.183-80.652h42.709
	c2.452,44.974,20.401,85.84,48.598,117.332l-30.212,30.181C64.609,394.38,50.191,371.947,39.772,347.264z M97.758,429.214
	l30.212-30.212c31.493,28.213,72.343,46.146,117.316,48.614v42.709c-27.915-1.25-55.003-7.342-80.653-18.184
	C139.967,461.708,117.519,447.304,97.758,429.214z M266.61,490.326v-42.709c44.974-2.468,85.824-20.401,117.317-48.614
	l30.195,30.212c-19.745,18.09-42.193,32.493-66.859,42.928C321.613,482.984,294.525,489.076,266.61,490.326z M429.213,414.125
	l-30.212-30.181c28.197-31.492,46.146-72.358,48.598-117.332h42.709c-1.233,27.915-7.326,55.002-18.167,80.652
	C461.707,371.947,447.287,394.38,429.213,414.125z"/>
<g>
</g>
<g>
</g>
<g>
</g>
<g>
</g>
<g>
</g>
<g>
</g>
<g>
</g>
<g>
</g>
<g>
</g>
<g>
</g>
<g>
</g>
<g>
</g>
<g>
</g>
<g>
</g>
<g>
</g>
</svg>
